<svg xmlns="http://www.w3.org/2000/svg" xmlns:xlink="http://www.w3.org/1999/xlink">

<line x1="120" y1="102" x2="176" y2="149" style="stroke:#0000FF;"/>
<line x1="120" y1="211" x2="130" y2="211" style="stroke:#0000FF;"/>
<line x1="215" y1="276" x2="225" y2="276" style="stroke:#0000FF;"/>
<polygon points="294,80 293,80 293,81 293,81 293,82 293,83 293,83 293,84 292,84 292,85 292,85 291,86 291,86 290,87 290,87 289,88 289,88 288,88 288,89 287,89 287,89 286,89 285,89 285,89 284,89 284,90 283,89 282,89 282,89 281,89 280,89 280,89 279,89 279,88 278,88 278,88 277,87 277,87 276,86 276,86 275,85 275,85 275,84 274,84 274,83 274,83 274,82 274,81 274,81 274,80 274,80 274,79 274,78 274,78 274,77 274,76 274,76 274,75 275,75 275,74 275,74 276,73 276,73 277,72 277,72 278,71 278,71 279,71 279,70 280,70 280,70 281,70 282,70 282,70 283,70 284,70 284,70 285,70 285,70 286,70 287,70 287,70 288,70 288,71 289,71 289,71 290,72 290,72 291,73 291,73 292,74 292,74 292,75 293,75 293,76 293,76 293,77 293,78 293,78 293,79" style="stroke:#FF0000; fill:#0000FF;"/>
<polygon points="314,170 313,173 313,176 313,179 312,182 311,186 311,189 310,192 308,195 307,197 306,200 304,203 302,205 301,207 299,210 297,212 294,213 292,215 290,217 288,218 285,219 283,220 280,221 278,221 275,221 273,222 270,221 267,221 265,221 262,220 260,219 257,218 255,217 253,215 251,213 248,212 246,210 244,207 243,205 241,203 239,200 238,197 237,195 235,192 234,189 234,186 233,182 232,179 232,176 232,173 232,169 232,166 232,163 232,160 233,157 234,153 234,150 235,147 237,144 238,142 239,139 241,136 243,134 244,132 246,129 248,127 251,126 253,124 255,122 257,121 260,120 262,119 265,118 267,118 270,118 273,118 275,118 278,118 280,118 283,119 285,120 288,121 290,122 292,124 294,126 297,127 299,129 301,132 302,134 304,136 306,139 307,142 308,144 310,147 311,150 311,153 312,157 313,160 313,163 313,166" style="stroke:#FF0000; fill:#0000FF;"/>

</svg>
