<svg xmlns="http://www.w3.org/2000/svg" xmlns:xlink="http://www.w3.org/1999/xlink">

<line x1="166" y1="167" x2="62" y2="108" style="stroke:#0000FF;"/>
<line x1="341" y1="549" x2="211" y2="343" style="stroke:#0000FF;"/>
<line x1="355" y1="456" x2="306" y2="375" style="stroke:#0000FF;"/>
<line x1="474" y1="233" x2="484" y2="233" style="stroke:#0000FF;"/>
<line x1="324" y1="198" x2="334" y2="198" style="stroke:#0000FF;"/>
<line x1="237" y1="220" x2="296" y2="334" style="stroke:#0000FF;"/>
<line x1="610" y1="372" x2="620" y2="372" style="stroke:#0000FF;"/>
<line x1="715" y1="276" x2="725" y2="276" style="stroke:#0000FF;"/>
<polygon points="333,62 332,64 332,67 331,70 330,73 329,76 328,79 326,82 325,84 323,87 320,89 318,91 315,94 312,96 309,98 306,100 303,101 299,103 296,104 292,105 288,106 284,107 280,108 277,108 273,108 269,109 264,108 260,108 257,108 253,107 249,106 245,105 241,104 238,103 234,101 231,100 228,98 225,96 222,94 219,91 217,89 214,87 212,84 211,82 209,79 208,76 207,73 206,70 205,67 205,64 205,61 205,59 205,56 206,53 207,50 208,47 209,44 211,41 212,39 214,36 217,34 219,32 222,29 225,27 228,25 231,23 234,22 238,20 241,19 245,18 249,17 253,16 257,15 260,15 264,15 269,15 273,15 277,15 280,15 284,16 288,17 292,18 296,19 299,20 303,22 306,23 309,25 312,27 315,29 318,32 320,34 323,36 325,39 326,41 328,44 329,47 330,50 331,53 332,56 332,59" style="stroke:#FF0000; fill:#0000FF;"/>
<polygon points="555,488 554,495 554,502 553,510 552,517 551,524 549,531 547,538 545,545 543,551 540,557 537,563 534,569 531,574 527,579 523,584 519,588 515,592 511,595 506,598 502,601 497,603 493,604 488,606 483,606 479,607 474,606 469,606 464,604 460,603 455,601 451,598 446,595 442,592 438,588 434,584 430,579 426,574 423,569 420,563 417,557 414,551 412,545 410,538 408,531 406,524 405,517 404,510 403,502 403,495 403,487 403,480 403,473 404,465 405,458 406,451 408,444 410,437 412,430 414,424 417,418 420,412 423,406 426,401 430,396 434,391 438,387 442,383 446,380 451,377 455,374 460,372 464,371 469,369 474,369 479,369 483,369 488,369 493,371 497,372 502,374 506,377 511,380 515,383 519,387 523,391 527,396 531,401 534,406 537,412 540,418 543,424 545,430 547,437 549,444 551,451 552,458 553,465 554,473 554,480" style="stroke:#FF0000; fill:#0000FF;"/>
<polygon points="556,293 555,300 555,307 553,313 552,320 550,327 547,334 545,340 541,346 538,353 534,358 529,364 525,369 520,374 514,379 509,383 503,387 496,391 490,394 483,397 477,399 470,401 463,403 456,404 449,404 442,405 434,404 427,404 420,403 413,401 406,399 400,397 393,394 387,391 380,387 374,383 369,379 363,374 358,369 354,364 349,358 345,353 342,346 338,340 336,334 333,327 331,320 330,313 328,307 328,300 328,292 328,285 328,278 330,272 331,265 333,258 336,251 338,245 342,239 345,232 349,227 354,221 358,216 363,211 369,206 374,202 380,198 387,194 393,191 400,188 406,186 413,184 420,182 427,181 434,181 442,181 449,181 456,181 463,182 470,184 477,186 483,188 490,191 496,194 503,198 509,202 514,206 520,211 525,216 529,221 534,227 538,232 541,239 545,245 547,251 550,258 552,265 553,272 555,278 555,285" style="stroke:#FF0000; fill:#0000FF;"/>
<polygon points="381,184 381,186 381,188 381,190 382,192 383,194 384,196 386,198 387,200 389,202 391,203 393,205 395,207 397,208 400,210 402,211 405,212 408,213 411,214 414,215 417,216 420,216 424,217 427,217 430,217 434,218 437,217 440,217 443,217 447,216 450,216 453,215 456,214 459,213 462,212 465,211 467,210 470,208 472,207 474,205 476,203 478,202 480,200 481,198 483,196 484,194 485,192 486,190 486,188 486,186 487,184 486,181 486,179 486,177 485,175 484,173 483,171 481,169 480,167 478,165 476,164 474,162 472,160 470,159 467,157 465,156 462,155 459,154 456,153 453,152 450,151 447,151 443,150 440,150 437,150 434,150 430,150 427,150 424,150 420,151 417,151 414,152 411,153 408,154 405,155 402,156 400,157 397,159 395,160 393,162 391,164 389,165 387,167 386,169 384,171 383,173 382,175 381,177 381,179 381,181" style="stroke:#FF0000; fill:#0000FF;"/>
<polygon points="664,454 663,454 663,455 663,455 663,456 663,457 663,457 663,458 662,458 662,459 662,459 661,460 661,460 660,461 660,461 659,462 659,462 658,462 658,463 657,463 657,463 656,463 655,463 655,463 654,463 654,464 653,463 652,463 652,463 651,463 650,463 650,463 649,463 649,462 648,462 648,462 647,461 647,461 646,460 646,460 645,459 645,459 645,458 644,458 644,457 644,457 644,456 644,455 644,455 644,454 644,454 644,453 644,452 644,452 644,451 644,450 644,450 644,449 645,449 645,448 645,448 646,447 646,447 647,446 647,446 648,445 648,445 649,445 649,444 650,444 650,444 651,444 652,444 652,444 653,444 654,444 654,444 655,444 655,444 656,444 657,444 657,444 658,444 658,445 659,445 659,445 660,446 660,446 661,447 661,447 662,448 662,448 662,449 663,449 663,450 663,450 663,451 663,452 663,452 663,453" style="stroke:#FF0000; fill:#0000FF;"/>

</svg>
